{
  "accessors": [
    {
      "bufferView": 2,
      "componentType": 5126,
      "count": 813,
      "max": [
        0.1210940033197403,
        0.20138999819755554,
        0.125
      ],
      "min": [
        -1.2655220031738281,
        -1.6056090593338013,
        -0.125
      ],
      "type": "VEC3"
    },
    {
      "bufferView": 2,
      "byteOffset": 9756,
      "componentType": 5126,
      "count": 813,
      "max": [
        0.9949427843093872,
        0.9918105006217957,
        1.0
      ],
      "min": [
        -0.9968382120132446,
        -0.9885531067848206,
        -1.0
      ],
      "type": "VEC3"
    },
    {
      "bufferView": 3,
      "componentType": 5126,
      "count": 813,
      "max": [
        0.8818944692611694,
        0.712250292301178,
        0.9969257712364197,
        1.0
      ],
      "min": [
        -0.9924203753471375,
        -0.8815170526504517,
        -0.9966753125190735,
        1.0
      ],
      "type": "VEC4"
    },
    {
      "bufferView": 1,
      "componentType": 5126,
      "count": 813,
      "max": [
        1.0,
        0.9529820084571838
      ],
      "min": [
        0.0,
        0.1534069925546646
      ],
      "type": "VEC2"
    },
    {
      "bufferView": 0,
      "componentType": 5125,
      "count": 3444,
      "type": "SCALAR"
    },
    {
      "bufferView": 2,
      "byteOffset": 19512,
      "componentType": 5126,
      "count": 1635,
      "max": [
        2.728292942047119,
        0.5507689714431763,
        0.125
      ],
      "min": [
        -1.2655220031738281,
        -1.6056090593338013,
        -0.125
      ],
      "type": "VEC3"
    },
    {
      "bufferView": 2,
      "byteOffset": 39132,
      "componentType": 5126,
      "count": 1635,
      "max": [
        0.9966340065002441,
        0.9968152642250061,
        1.0
      ],
      "min": [
        -0.9968382120132446,
        -0.9885531067848206,
        -1.0
      ],
      "type": "VEC3"
    },
    {
      "bufferView": 3,
      "byteOffset": 13008,
      "componentType": 5126,
      "count": 1635,
      "max": [
        0.8820534348487854,
        0.8007434606552124,
        0.9969257116317749,
        1.0
      ],
      "min": [
        -0.9941371083259583,
        -0.8816047310829163,
        -0.996923565864563,
        1.0
      ],
      "type": "VEC4"
    },
    {
      "bufferView": 1,
      "byteOffset": 6504,
      "componentType": 5126,
      "count": 1635,
      "max": [
        0.992123007774353,
        0.9324380159378052
      ],
      "min": [
        0.39133501052856445,
        0.0
      ],
      "type": "VEC2"
    },
    {
      "bufferView": 0,
      "byteOffset": 13776,
      "componentType": 5125,
      "count": 6888,
      "type": "SCALAR"
    },
    {
      "bufferView": 2,
      "byteOffset": 58752,
      "componentType": 5126,
      "count": 477,
      "max": [
        1.0,
        1.0,
        1.0
      ],
      "min": [
        -1.0,
        -1.0,
        -1.0
      ],
      "type": "VEC3"
    },
    {
      "bufferView": 2,
      "byteOffset": 64476,
      "componentType": 5126,
      "count": 477,
      "max": [
        0.9810776710510254,
        0.9810776710510254,
        0.9832088947296143
      ],
      "min": [
        -0.9810776710510254,
        -0.9810776710510254,
        -0.6857144236564636
      ],
      "type": "VEC3"
    },
    {
      "bufferView": 3,
      "byteOffset": 39168,
      "componentType": 5126,
      "count": 477,
      "max": [
        0.9999512434005737,
        0.9999780058860779,
        0.9809004068374634,
        1.0
      ],
      "min": [
        -0.9987655282020569,
        -0.9987648725509644,
        -0.9810384511947632,
        1.0
      ],
      "type": "VEC4"
    },
    {
      "bufferView": 1,
      "byteOffset": 19584,
      "componentType": 5126,
      "count": 477,
      "max": [
        0.977258026599884,
        0.8226270079612732
      ],
      "min": [
        0.0,
        0.0
      ],
      "type": "VEC2"
    },
    {
      "bufferView": 0,
      "byteOffset": 41328,
      "componentType": 5125,
      "count": 1908,
      "type": "SCALAR"
    },
    {
      "bufferView": 2,
      "byteOffset": 70200,
      "componentType": 5126,
      "count": 2205,
      "max": [
        0.957472026348114,
        0.957472026348114,
        3.4604430198669434
      ],
      "min": [
        -0.957472026348114,
        -0.957472026348114,
        -1.3200650215148926
      ],
      "type": "VEC3"
    },
    {
      "bufferView": 2,
      "byteOffset": 96660,
      "componentType": 5126,
      "count": 2205,
      "max": [
        1.0,
        1.0,
        1.0
      ],
      "min": [
        -1.0,
        -1.0,
        -1.0
      ],
      "type": "VEC3"
    },
    {
      "bufferView": 3,
      "byteOffset": 46800,
      "componentType": 5126,
      "count": 2205,
      "max": [
        0.7079865336418152,
        1.0,
        1.0,
        1.0
      ],
      "min": [
        -1.0,
        -1.0,
        -1.0,
        1.0
      ],
      "type": "VEC4"
    },
    {
      "bufferView": 1,
      "byteOffset": 23400,
      "componentType": 5126,
      "count": 2205,
      "max": [
        0.9648460149765015,
        0.9712889790534973
      ],
      "min": [
        0.0,
        0.0
      ],
      "type": "VEC2"
    },
    {
      "bufferView": 0,
      "byteOffset": 48960,
      "componentType": 5125,
      "count": 9504,
      "type": "SCALAR"
    }
  ],
  "asset": {
    "extras": {
      "author": "Damla Yagli (https://sketchfab.com/ddamlayagli)",
      "license": "CC-BY-4.0 (http://creativecommons.org/licenses/by/4.0/)",
      "source": "https://sketchfab.com/3d-models/rocket-f2de8f6deee14c3db0a65b23fa8faf89",
      "title": "Rocket"
    },
    "generator": "Sketchfab-12.70.0",
    "version": "2.0"
  },
  "bufferViews": [
    {
      "buffer": 0,
      "byteLength": 86976,
      "name": "floatBufferViews",
      "target": 34963
    },
    {
      "buffer": 0,
      "byteLength": 41040,
      "byteOffset": 86976,
      "byteStride": 8,
      "name": "floatBufferViews",
      "target": 34962
    },
    {
      "buffer": 0,
      "byteLength": 123120,
      "byteOffset": 128016,
      "byteStride": 12,
      "name": "floatBufferViews",
      "target": 34962
    },
    {
      "buffer": 0,
      "byteLength": 82080,
      "byteOffset": 251136,
      "byteStride": 16,
      "name": "floatBufferViews",
      "target": 34962
    }
  ],
  "buffers": [
    {
      "byteLength": 333216,
      "uri": "scene.bin"
    }
  ],
  "images": [
    {
      "uri": "textures/ROKET_baseColor.jpeg"
    },
    {
      "uri": "textures/ROKET_metallicRoughness.png"
    },
    {
      "uri": "textures/ROKET_normal.png"
    }
  ],
  "materials": [
    {
      "doubleSided": true,
      "name": "ROKET",
      "normalTexture": {
        "index": 2
      },
      "occlusionTexture": {
        "index": 1
      },
      "pbrMetallicRoughness": {
        "baseColorTexture": {
          "index": 0
        },
        "metallicRoughnessTexture": {
          "index": 1
        }
      }
    }
  ],
  "meshes": [
    {
      "name": "defaultMaterial",
      "primitives": [
        {
          "attributes": {
            "NORMAL": 1,
            "POSITION": 0,
            "TANGENT": 2,
            "TEXCOORD_0": 3
          },
          "indices": 4,
          "material": 0,
          "mode": 4
        }
      ]
    },
    {
      "name": "defaultMaterial",
      "primitives": [
        {
          "attributes": {
            "NORMAL": 6,
            "POSITION": 5,
            "TANGENT": 7,
            "TEXCOORD_0": 8
          },
          "indices": 9,
          "material": 0,
          "mode": 4
        }
      ]
    },
    {
      "name": "defaultMaterial",
      "primitives": [
        {
          "attributes": {
            "NORMAL": 11,
            "POSITION": 10,
            "TANGENT": 12,
            "TEXCOORD_0": 13
          },
          "indices": 14,
          "material": 0,
          "mode": 4
        }
      ]
    },
    {
      "name": "defaultMaterial",
      "primitives": [
        {
          "attributes": {
            "NORMAL": 16,
            "POSITION": 15,
            "TANGENT": 17,
            "TEXCOORD_0": 18
          },
          "indices": 19,
          "material": 0,
          "mode": 4
        }
      ]
    }
  ],
  "nodes": [
    {
      "children": [
        1
      ],
      "matrix": [
        1.0,
        0.0,
        0.0,
        0.0,
        0.0,
        2.220446049250313e-16,
        -1.0,
        0.0,
        0.0,
        1.0,
        2.220446049250313e-16,
        0.0,
        0.0,
        0.0,
        0.0,
        1.0
      ],
      "name": "Sketchfab_model"
    },
    {
      "children": [
        2,
        4,
        6,
        8
      ],
      "matrix": [
        1.0,
        0.0,
        0.0,
        0.0,
        0.0,
        -4.371139006309477e-08,
        0.999999999999999,
        0.0,
        0.0,
        -0.999999999999999,
        -4.371139006309477e-08,
        0.0,
        0.0,
        0.0,
        0.0,
        1.0
      ],
      "name": "Collada visual scene group"
    },
    {
      "children": [
        3
      ],
      "matrix": [
        4e-06,
        -13.559231,
        82.38871,
        0.0,
        2e-05,
        82.38871,
        13.559231,
        0.0,
        -83.497025,
        1.9e-05,
        7e-06,
        0.0,
        -3e-06,
        -24.814922,
        -79.912781,
        1.0
      ],
      "name": "BezierCircle.001"
    },
    {
      "mesh": 0,
      "name": "defaultMaterial"
    },
    {
      "children": [
        5
      ],
      "matrix": [
        -82.38871,
        -13.55923,
        -1.3e-05,
        0.0,
        -13.55923,
        82.38871,
        1.4e-05,
        0.0,
        1e-05,
        1.6e-05,
        -83.497025,
        0.0,
        49.468849,
        -24.814922,
        -0.750956,
        1.0
      ],
      "name": "BezierCircle"
    },
    {
      "mesh": 1,
      "name": "defaultMaterial"
    },
    {
      "children": [
        7
      ],
      "matrix": [
        44.339268,
        0.0,
        0.0,
        0.0,
        0.0,
        43.920635,
        -6.078509,
        0.0,
        0.0,
        6.078509,
        43.920635,
        0.0,
        0.0,
        163.522064,
        63.623184,
        1.0
      ],
      "name": "Cylinder"
    },
    {
      "mesh": 2,
      "name": "defaultMaterial"
    },
    {
      "children": [
        9
      ],
      "matrix": [
        100.0,
        0.0,
        0.0,
        0.0,
        0.0,
        -1.6e-05,
        -100.0,
        0.0,
        0.0,
        100.0,
        -1.6e-05,
        0.0,
        0.0,
        0.0,
        0.0,
        1.0
      ],
      "name": "Cube"
    },
    {
      "mesh": 3,
      "name": "defaultMaterial"
    }
  ],
  "samplers": [
    {
      "magFilter": 9729,
      "minFilter": 9987,
      "wrapS": 10497,
      "wrapT": 10497
    }
  ],
  "scene": 0,
  "scenes": [
    {
      "name": "Sketchfab_Scene",
      "nodes": [
        0
      ]
    }
  ],
  "textures": [
    {
      "sampler": 0,
      "source": 0
    },
    {
      "sampler": 0,
      "source": 1
    },
    {
      "sampler": 0,
      "source": 2
    }
  ]
}
